<?xml version="1.0" encoding="UTF-8"?>
<svg xmlns="http://www.w3.org/2000/svg"
     viewBox="0 0 197.6 95"
     preserveAspectRatio="xMidYMid meet">
  <style>
    @keyframes robotMoves {
      from { transform: translateY(0); }
      to   { transform: translateY(8px); }
    }
    @keyframes eyesBlink {
      10% { transform: scaleY(1); }
      11%,12% { transform: scaleY(0); }
      13% { transform: scaleY(1); }
    }
    @keyframes eyesMoves {
      10% { transform: translateX(0); }
      13% { transform: translateX(-12px); }
      30% { transform: translateX(-12px); }
      33% { transform: translateX(12px); }
      45% { transform: translateX(12px); }
      47% { transform: translateX(0); }
    }
    @keyframes antennaMoves {
      10% { transform: translateX(0); }
      13% { transform: translateX(2px); }
      30% { transform: translateX(2px); }
      33% { transform: translateX(-16px); }
      45% { transform: translateX(-16px); }
      47% { transform: translateX(0); }
    }

    .robot {
      animation: robotMoves 2s ease-in-out alternate infinite;
    }
    .robot-eyes > circle {
      transform-box: fill-box;
      transform-origin: center center;
      animation: eyesBlink 2s linear alternate infinite;
    }
    .robot:hover .robot-eyes {
      animation: eyesMoves 5s linear alternate infinite;
    }
    .robot:hover .robot-antenna {
      animation: antennaMoves 5s linear alternate infinite;
    }
    .robot:hover {
      animation-play-state: paused;
    }
  </style>

  <!-- Fundo em formato de balão com cantos arredondados -->
  <rect x="0" y="0" width="197.6" height="95" rx="15" ry="15" fill="#FFECB3" />

  <!-- Grupo do robô (cabeça + antena + olhos) -->
  <g class="robot">
    <g class="robot-head">
      <g class="robot-antenna">
        <path d="M119.676,25.811a1.857,1.857,0,1,0-2.303,1.801l-.289,22.732h1.406l-.289-22.715A1.857,1.857,0,0,0,119.676,25.811Z" transform="translate(-12.758 -15.217)" />
        <path d="M127.411,43.904a4.186,4.186,0,0,1-4.174,4.174H112.345a4.168,4.168,0,0,1-3.133-6.924c.06-.068.122-.134.186-.198a4.162,4.162,0,0,1,2.948-1.226h10.893a4.185,4.185,0,0,1,4.154,3.764C127.404,43.63,127.411,43.766,127.411,43.904Z" transform="translate(-12.758 -15.217)" fill="#34345b"/>
        <path d="M127.411,43.904a4.186,4.186,0,0,1-4.174,4.174H112.345a4.168,4.168,0,0,1-3.133-6.924,1.787,1.787,0,0,0,.277,1.264c.399.541,1.098.633,2.522.721,2.438.15,4.036.101,6.125.09,3.212-.016,4.819-.024,4.954,0a1.903,1.903,0,0,0,.72,0,2.561,2.561,0,0,0,1.352-.901,2.739,2.739,0,0,0,.486-1.828A4.177,4.177,0,0,1,127.411,43.904Z" transform="translate(-12.758 -15.217)" fill="#34345b" fill-opacity="0.6"/>
        <path d="M127.411,43.904a4.186,4.186,0,0,1-4.174,4.174H112.345a4.174,4.174,0,0,1-4.124-4.816c1.019.05,2.236.104,3.609.147.553.017,2.179.067,4.504.09,2.024.021,3.225.008,5.224,0,1.45-.006,3.43-.011,5.834-.005C127.404,43.63,127.411,43.766,127.411,43.904Z" transform="translate(-12.758 -15.217)" fill="#d33d3d"/>
        <path d="M117.819,35.355a9.915,9.915,0,1,1,9.915-9.915A9.877,9.877,0,0,1,117.819,35.355Zm9.723-13.079a10.228,10.228,0,1,0,.5,3.164A10.277,10.277,0,0,0,127.542,22.276Z" transform="translate(-12.758 -15.217)" fill="#64eef2"/>
        <path d="M117.819,33.85a8.414,8.414,0,1,1,8.414-8.41A8.427,8.427,0,0,1,117.819,33.85Zm8.756-10.607a9.03,9.03,0,1,0,.271,2.198A9.061,9.061,0,0,0,126.575,23.243Z" transform="translate(-12.758 -15.217)" fill="#64eef2"/>
        <path d="M119.035,30.782a5.478,5.478,0,1,1,4.262-5.342,5.468,5.468,0,0,1-4.262,5.342Zm5.494-5.493a6.719,6.719,0,0,0-6.494-6.557c-.071-.003-.143-.004-.216-.004a6.72,6.72,0,0,0-6.712,6.712c0,.073.001.144.004.216a6.719,6.719,0,0,0,6.557,6.494c.049.002.1.003.151.003a6.721,6.721,0,0,0,6.713-6.713Z" transform="translate(-12.758 -15.217)" fill="#64eef2"/>
        <path d="M124.529,25.289l-1.367,1.367a5.479,5.479,0,0,0-6.474-6.576l1.347-1.348A6.719,6.719,0,0,1,124.529,25.289Z" transform="translate(-12.758 -15.217)" fill="#abefef"/>
        <path d="M126.575,23.243l-.515.515a8.436,8.436,0,0,0-6.504-6.546l.514-.514A9.061,9.061,0,0,1,126.575,23.243Z" transform="translate(-12.758 -15.217)" fill="#abefef"/>
        <path d="M127.542,22.276l-.247.247a9.956,9.956,0,0,0-6.507-6.543l.244-.246A10.276,10.276,0,0,1,127.542,22.276Z" transform="translate(-12.758 -15.217)" fill="#abefef"/>
      </g>
      <path d="M144.614,64.392v10.262a20.621,20.621,0,0,1-20.561,20.562H82.132a20.621,20.621,0,0,1-20.561-20.562V64.392a20.621,20.621,0,0,1,20.561-20.561h41.922A20.621,20.621,0,0,1,144.614,64.392Z" transform="translate(-12.758 -15.217)" fill="#fff"/>
      <path d="M144.614,64.392v10.262a20.621,20.621,0,0,1-20.561,20.562H82.132a20.621,20.621,0,0,1-20.561-20.562v-3.39a35.964,35.964,0,0,0,2.342,6.911c1.411,3.085,3.695,7.912,8.826,11.079,4.924,3.038,9.953,2.995,13.06,2.972,11.959-.086,17.193.702,35.847-.18a15.017,15.017,0,0,0,3.783-.63,17.333,17.333,0,0,0,5.314-2.882c4.944-4.091,4.881-14.857,4.863-18.013-.041-7.115-.079-13.472-4.593-18.644-2.474-2.834-5.177-4.034-9.277-5.854a51.732,51.732,0,0,0-5.872-2.189h8.188A20.621,20.621,0,0,1,144.614,64.392Z" transform="translate(-12.758 -15.217)" fill="#c0c0c7"/>
      <g class="robot-eyes">
        <rect x="68" y="51" width="45" height="20" rx="10" fill="#34345B"/>
        <circle cx="79" cy="61.152" r="3" fill="#6bd9c8"/>
        <circle cx="102" cy="61.152" r="3" fill="#6bd9c8"/>
      </g>
    </g>
  </g>
</svg>
