<svg xmlns="http://www.w3.org/2000/svg" xmlns:xlink="http://www.w3.org/1999/xlink" width="100" zoomAndPan="magnify" viewBox="0 0 75 74.999997" height="100" preserveAspectRatio="xMidYMid meet" version="1.0"><defs><clipPath id="4488bf5819"><path d="M 2 0 L 73.761719 0 L 73.761719 75 L 2 75 Z M 2 0 " clip-rule="nonzero"/></clipPath><clipPath id="73d6293775"><path d="M 49.472656 15.226562 L 50.753906 15.226562 L 50.753906 16.339844 L 49.472656 16.339844 Z M 49.472656 15.226562 " clip-rule="nonzero"/></clipPath><clipPath id="2e8cf94a5e"><path d="M 50.75 15.609375 C 50.167969 16.550781 49.628906 16.371094 49.539062 16.191406 C 49.40625 15.96875 49.496094 15.429688 49.675781 15.292969 C 49.855469 15.160156 50.570312 15.339844 50.570312 15.339844 " clip-rule="nonzero"/></clipPath></defs><g clip-path="url(#4488bf5819)"><path fill="#74ba9c" d="M 3.808594 9.046875 C 4.855469 5.125 9.769531 1.605469 15.121094 1.128906 C 27.429688 0.0390625 55.40625 0.257812 61.496094 1.230469 C 64.792969 1.757812 71.394531 3.203125 72.308594 14.378906 C 73 22.773438 73.765625 42.992188 72.3125 54.734375 C 71.417969 61.957031 66.996094 64.195312 64.273438 64.730469 C 60.851562 65.398438 57.324219 65.421875 53.863281 65.652344 C 53.566406 70.605469 55.34375 73.753906 56.839844 74.96875 C 51.324219 74.199219 47.277344 69.238281 46.261719 66.097656 C 38.945312 66.464844 21.15625 66.410156 13.230469 64.886719 C 4.394531 63.1875 3.332031 58.101562 2.929688 54.339844 C 2.082031 46.441406 1.023438 19.441406 3.808594 9.046875 Z M 3.808594 9.046875 " fill-opacity="1" fill-rule="nonzero"/></g><path fill="#2d323f" d="M 11.308594 31.550781 C 11.375 30.898438 11.574219 30.292969 11.898438 29.726562 C 12.28125 29.125 12.820312 28.738281 13.511719 28.566406 C 13.585938 28.542969 13.675781 28.523438 13.761719 28.5 C 13.984375 26.21875 14.28125 23.9375 14.90625 21.726562 C 15.40625 19.964844 16.09375 18.121094 17.515625 16.890625 C 19.039062 15.582031 21.03125 15.167969 22.945312 14.820312 C 25.335938 14.394531 27.738281 14.089844 30.15625 13.90625 C 32.414062 13.730469 34.683594 13.628906 36.957031 13.605469 C 36.976562 12.929688 37.003906 12.253906 37.027344 11.574219 C 37.050781 10.898438 37.292969 9.941406 37.835938 10.054688 C 38.285156 10.347656 38.457031 11.851562 38.484375 13.605469 C 40.726562 13.621094 42.972656 13.714844 45.214844 13.898438 C 47.308594 14.054688 49.386719 14.332031 51.449219 14.730469 C 53.460938 15.136719 55.496094 15.75 57.085938 17.105469 C 58.246094 18.101562 59.011719 19.492188 59.535156 20.902344 C 60.300781 22.972656 60.59375 25.214844 60.761719 27.402344 C 60.78125 27.667969 60.796875 27.9375 60.816406 28.203125 C 62.40625 28.585938 63.195312 29.347656 63.683594 30.382812 C 64.027344 31.175781 64.234375 32.007812 64.296875 32.871094 C 64.421875 35.125 64.363281 37.671875 63.675781 39.765625 C 63.164062 41.328125 61.980469 42.429688 60.082031 42.847656 C 59.957031 45.003906 59.636719 47.136719 59.121094 49.238281 C 58.773438 50.542969 58.230469 51.695312 57.183594 52.59375 C 55.921875 53.671875 54.300781 54.171875 52.695312 54.507812 C 51.191406 54.8125 49.671875 55 48.136719 55.066406 C 48.121094 55.285156 48.074219 55.5 47.996094 55.703125 C 47.875 55.980469 47.664062 56.148438 47.363281 56.199219 C 46.847656 56.304688 45.097656 56.503906 44.007812 56.160156 C 43.859375 56.121094 43.722656 56.054688 43.601562 55.957031 C 43.480469 55.828125 43.398438 55.679688 43.351562 55.507812 C 43.261719 55.097656 43.226562 54.683594 43.25 54.265625 C 43.285156 53.910156 43.351562 53.644531 43.640625 53.464844 C 43.859375 53.351562 44.089844 53.296875 44.335938 53.300781 C 45.148438 53.25 45.964844 53.226562 46.777344 53.222656 C 47.011719 53.207031 47.242188 53.234375 47.464844 53.304688 C 47.859375 53.496094 48.078125 53.808594 48.121094 54.242188 C 49.359375 54.1875 50.589844 54.050781 51.808594 53.839844 C 53.320312 53.570312 54.941406 53.199219 56.214844 52.300781 C 57.320312 51.519531 57.90625 50.460938 58.261719 49.1875 C 58.601562 47.890625 58.84375 46.578125 58.984375 45.246094 C 59.078125 44.5 59.152344 43.753906 59.214844 42.992188 C 58.777344 43.039062 58.339844 43.050781 57.898438 43.039062 L 56.523438 27.992188 C 57.613281 27.914062 58.703125 27.929688 59.792969 28.046875 C 59.707031 26.164062 59.433594 24.308594 58.96875 22.484375 C 58.589844 21.09375 58.003906 19.652344 57.097656 18.582031 C 55.875 17.128906 54.03125 16.378906 52.21875 15.949219 C 50.355469 15.523438 48.472656 15.222656 46.570312 15.046875 C 43.886719 14.777344 41.183594 14.648438 38.480469 14.632812 C 38.480469 15.898438 38.402344 17.195312 38.328125 18.203125 L 36.789062 18.101562 C 36.832031 16.941406 36.871094 15.789062 36.914062 14.636719 C 35.367188 14.65625 33.824219 14.707031 32.28125 14.792969 C 29.890625 14.925781 27.5 15.144531 25.132812 15.496094 C 24.03125 15.65625 22.933594 15.847656 21.84375 16.078125 C 20.925781 16.25 20.054688 16.542969 19.222656 16.964844 C 17.761719 17.753906 16.894531 19.101562 16.339844 20.628906 C 15.519531 22.867188 15.144531 25.238281 14.882812 27.601562 C 14.855469 27.847656 14.832031 28.121094 14.808594 28.378906 C 15.777344 28.28125 16.746094 28.296875 17.714844 28.421875 L 19.007812 43.296875 C 17.523438 43.246094 16.054688 43.082031 14.597656 42.800781 C 13.421875 42.550781 12.53125 41.414062 12.0625 40.222656 C 11.625 38.945312 11.355469 37.632812 11.25 36.289062 C 11.136719 34.707031 11.152344 33.128906 11.308594 31.550781 Z M 11.308594 31.550781 " fill-opacity="1" fill-rule="nonzero"/><path fill="#e9f4ef" d="M 17.722656 45.109375 C 18.335938 47.6875 19.601562 49.003906 21.816406 49.742188 C 28.617188 52.003906 45.386719 51.503906 51.417969 50.34375 C 53.761719 49.894531 56.273438 48.601562 57.023438 46.394531 C 58.5625 43.046875 58.710938 33.519531 58.421875 29.335938 C 58.050781 24.015625 57.34375 21.019531 53.890625 19.578125 C 51.691406 18.660156 47.265625 17.921875 45.101562 17.753906 C 38.742188 17.253906 32.390625 17.355469 26.050781 18.050781 C 23.449219 18.335938 20.636719 18.832031 18.878906 20.765625 C 17.175781 22.632812 16.902344 25.355469 16.816406 27.875 C 16.617188 34.003906 16.792969 41.136719 17.722656 45.109375 Z M 40.179688 11.054688 C 38.871094 11.101562 36.742188 11.109375 35.261719 11.078125 C 34.8125 11.082031 34.371094 11.042969 33.929688 10.96875 C 33.324219 10.820312 33.097656 10.222656 33.042969 9.589844 C 32.992188 9.113281 33.042969 8.296875 33.539062 8.097656 C 34.695312 7.730469 38.4375 7.613281 40.769531 8.097656 C 41.171875 8.175781 41.535156 8.332031 41.871094 8.570312 C 42.285156 8.871094 42.316406 9.539062 42.199219 10.039062 C 41.992188 10.894531 41.121094 11.015625 40.179688 11.050781 Z M 40.179688 11.054688 " fill-opacity="1" fill-rule="nonzero"/><path fill="#2d323f" d="M 33.632812 38.992188 C 33.710938 39.464844 33.871094 39.90625 34.105469 40.320312 C 34.34375 40.734375 34.644531 41.097656 35.007812 41.40625 C 35.371094 41.714844 35.777344 41.953125 36.226562 42.121094 C 36.675781 42.285156 37.136719 42.371094 37.617188 42.375 C 38.09375 42.378906 38.558594 42.300781 39.007812 42.140625 C 39.460938 41.980469 39.871094 41.75 40.238281 41.445312 C 40.609375 41.140625 40.914062 40.785156 41.15625 40.375 C 41.398438 39.960938 41.5625 39.523438 41.648438 39.054688 C 41.765625 38.445312 40.832031 38.1875 40.71875 38.804688 C 40.441406 40.25 39.121094 41.433594 37.617188 41.417969 C 36.109375 41.40625 34.816406 40.195312 34.566406 38.746094 C 34.460938 38.125 33.527344 38.386719 33.632812 38.992188 Z M 46.136719 28.367188 C 46.632812 28.246094 47.132812 28.230469 47.632812 28.328125 C 48.964844 28.734375 49.507812 30.039062 49.429688 31.429688 C 49.410156 31.875 49.246094 32.257812 48.929688 32.574219 C 48.035156 33.507812 46.371094 33.773438 45.378906 32.949219 C 45.113281 32.726562 44.894531 32.460938 44.726562 32.15625 C 44.558594 31.855469 44.449219 31.53125 44.398438 31.1875 C 44.347656 30.84375 44.359375 30.503906 44.4375 30.164062 C 44.511719 29.824219 44.644531 29.511719 44.832031 29.222656 C 45.160156 28.773438 45.597656 28.488281 46.136719 28.367188 Z M 26.316406 29.234375 C 26.644531 28.78125 27.085938 28.492188 27.636719 28.375 C 28.132812 28.25 28.632812 28.234375 29.132812 28.332031 C 30.464844 28.742188 31.007812 30.046875 30.929688 31.433594 C 30.914062 31.878906 30.746094 32.261719 30.429688 32.578125 C 29.535156 33.511719 27.871094 33.777344 26.875 32.953125 C 26.609375 32.730469 26.394531 32.46875 26.222656 32.167969 C 26.054688 31.863281 25.945312 31.542969 25.890625 31.199219 C 25.839844 30.859375 25.851562 30.519531 25.925781 30.179688 C 25.996094 29.839844 26.125 29.527344 26.316406 29.234375 Z M 26.316406 29.234375 " fill-opacity="1" fill-rule="nonzero"/><path fill="#f4ab9a" d="M 22.945312 39.742188 C 23.238281 40.015625 23.582031 40.199219 23.976562 40.289062 C 24.515625 40.457031 25.070312 40.535156 25.632812 40.515625 C 26.027344 40.527344 26.378906 40.414062 26.691406 40.171875 C 26.761719 40.089844 26.804688 40 26.816406 39.890625 C 26.832031 39.582031 26.765625 39.296875 26.617188 39.027344 C 26.46875 38.757812 26.257812 38.546875 25.984375 38.398438 C 25.441406 38.113281 24.859375 37.976562 24.242188 37.988281 C 23.628906 37.96875 22.878906 38.089844 22.652344 38.660156 C 22.523438 39.082031 22.621094 39.441406 22.945312 39.742188 Z M 49.296875 38.398438 C 49.839844 38.113281 50.417969 37.976562 51.027344 37.988281 C 51.644531 37.96875 52.394531 38.089844 52.617188 38.660156 C 52.75 39.078125 52.660156 39.4375 52.339844 39.742188 C 52.042969 40.015625 51.699219 40.195312 51.304688 40.289062 C 50.765625 40.457031 50.214844 40.535156 49.648438 40.515625 C 49.253906 40.527344 48.902344 40.414062 48.589844 40.171875 C 48.519531 40.09375 48.476562 40 48.46875 39.890625 C 48.449219 39.582031 48.515625 39.296875 48.664062 39.027344 C 48.816406 38.757812 49.027344 38.546875 49.296875 38.398438 Z M 49.296875 38.398438 " fill-opacity="1" fill-rule="nonzero"/><g clip-path="url(#73d6293775)"><g clip-path="url(#2e8cf94a5e)"><path fill="#74ba9c" d="M 47.746094 13.5 L 52.59375 13.5 L 52.59375 18.253906 L 47.746094 18.253906 Z M 47.746094 13.5 " fill-opacity="1" fill-rule="nonzero"/></g></g></svg>